<svg xmlns="http://www.w3.org/2000/svg" width="844.275" height="1211.237" viewBox="0 0 844.275 1211.237">
    <g id="Group_38" data-name="Group 38" transform="translate(-1409 -444.543)" opacity="0.51" style="isolation: isolate">
        <g id="Group_37" data-name="Group 37" transform="translate(1410 422)">
            <g id="Group_11" data-name="Group 11" transform="translate(0 131.161)">
                <g id="Group_8" data-name="Group 8" transform="translate(0 197.874)">
                    <ellipse id="Ellipse_1" data-name="Ellipse 1" cx="421.138" cy="94.756" rx="421.138" ry="94.756" fill="none" stroke="#ffcd00" stroke-miterlimit="10" stroke-width="2"/>
                    <path id="Path_2" data-name="Path 2" d="M230.907,312.185" transform="translate(-55.868 -122.672)" fill="none" stroke="#f58a2b" stroke-miterlimit="10" stroke-width="1"/>
                    <circle id="Ellipse_2" data-name="Ellipse 2" cx="13.161" cy="13.161" r="13.161" transform="translate(93.603 144.671)" fill="#ffcd00"/>
                    <circle id="Ellipse_3" data-name="Ellipse 3" cx="13.161" cy="13.161" r="13.161" transform="translate(93.603 18.543)" fill="#ffcd00"/>
                    <path id="Path_3" data-name="Path 3" d="M363.424,312.185" transform="translate(303.81 -122.672)" fill="none" stroke="#f58a2b" stroke-miterlimit="10" stroke-width="1"/>
                    <circle id="Ellipse_4" data-name="Ellipse 4" cx="13.161" cy="13.161" r="13.161" transform="translate(722.351 144.671)" fill="#ffcd00"/>
                    <circle id="Ellipse_5" data-name="Ellipse 5" cx="13.161" cy="13.161" r="13.161" transform="translate(722.351 18.543)" fill="#ffcd00"/>
                </g>
                <g id="Group_9" data-name="Group 9" transform="translate(9.044 0)">
                    <ellipse id="Ellipse_6" data-name="Ellipse 6" cx="94.756" cy="421.138" rx="94.756" ry="421.138" transform="translate(0 164.122) rotate(-60)" fill="none" stroke="#ffcd00" stroke-miterlimit="10" stroke-width="2"/>
                    <path id="Path_4" data-name="Path 4" d="M227.028,275.638" transform="translate(-75.44 -23.994)" fill="none" stroke="#f58a2b" stroke-miterlimit="10" stroke-width="1"/>
                    <circle id="Ellipse_7" data-name="Ellipse 7" cx="13.161" cy="13.161" r="13.161" transform="translate(95.14 176.909)" fill="#ffcd00"/>
                    <circle id="Ellipse_8" data-name="Ellipse 8" cx="13.161" cy="13.161" r="13.161" transform="translate(158.204 67.678)" fill="#ffcd00"/>
                    <path id="Path_5" data-name="Path 5" d="M341.792,341.9" transform="translate(236.052 155.844)" fill="none" stroke="#f58a2b" stroke-miterlimit="10" stroke-width="1"/>
                    <circle id="Ellipse_9" data-name="Ellipse 9" cx="13.161" cy="13.161" r="13.161" transform="translate(639.65 491.282)" fill="#ffcd00"/>
                    <circle id="Ellipse_10" data-name="Ellipse 10" cx="13.161" cy="13.161" r="13.161" transform="translate(702.715 382.051)" fill="#ffcd00"/>
                </g>
                <g id="Group_10" data-name="Group 10" transform="translate(9.043 0.001)">
                    <ellipse id="Ellipse_11" data-name="Ellipse 11" cx="421.138" cy="94.756" rx="421.138" ry="94.756" transform="matrix(0.866, -0.5, 0.5, 0.866, 0, 421.136)" fill="none" stroke="#ffcd00" stroke-miterlimit="10" stroke-width="2"/>
                    <path id="Path_6" data-name="Path 6" d="M252.54,341.9" transform="translate(-6.195 155.842)" fill="none" stroke="#f58a2b" stroke-miterlimit="10" stroke-width="1"/>
                    <circle id="Ellipse_12" data-name="Ellipse 12" cx="13.161" cy="13.161" r="13.161" transform="translate(158.216 491.281)" fill="#ffcd00"/>
                    <circle id="Ellipse_13" data-name="Ellipse 13" cx="13.161" cy="13.161" r="13.161" transform="translate(95.152 382.05)" fill="#ffcd00"/>
                    <path id="Path_7" data-name="Path 7" d="M367.3,275.638" transform="translate(305.294 -23.995)" fill="none" stroke="#f58a2b" stroke-miterlimit="10" stroke-width="1"/>
                    <circle id="Ellipse_14" data-name="Ellipse 14" cx="13.161" cy="13.161" r="13.161" transform="translate(702.727 176.907)" fill="#ffcd00"/>
                    <circle id="Ellipse_15" data-name="Ellipse 15" cx="13.161" cy="13.161" r="13.161" transform="translate(639.663 67.677)" fill="#ffcd00"/>
                </g>
            </g>
            <g id="Group_14" data-name="Group 14" transform="translate(49.64 888.836)">
                <g id="Group_13" data-name="Group 13" transform="translate(0 90.998)">
                    <g id="Group_12" data-name="Group 12">
                        <path id="Path_8" data-name="Path 8" d="M293.64,501A477.777,477.777,0,0,0,266.6,570.305a622.428,622.428,0,0,1-69.455-43.976,420.577,420.577,0,0,1,50.922-74.581A403.228,403.228,0,0,0,293.64,501Z" transform="translate(-197.145 -394.668)" fill="none" stroke="#ffcd00" stroke-miterlimit="10" stroke-width="3"/>
                        <path id="Path_9" data-name="Path 9" d="M467.683,526.3a625.4,625.4,0,0,1-69.418,43.976,478.972,478.972,0,0,0-27.039-69.27,411.334,411.334,0,0,0,45.573-49.25A422.111,422.111,0,0,1,467.683,526.3Z" transform="translate(275.343 -394.641)" fill="none" stroke="#ffcd00" stroke-miterlimit="10" stroke-width="3"/>
                        <path id="Path_10" data-name="Path 10" d="M310.111,515c-.483,2.006-1,4.011-1.449,6.017-.223.966-.446,1.969-.669,2.934-.26,1.04-.52,2.08-.743,3.157-.074.3-.111.594-.186.891-.111.52-.223,1.077-.371,1.6-.111.557-.223,1.077-.334,1.634-.446,1.931-.854,3.863-1.263,5.794-.037.223-.111.446-.149.669-.149.78-.3,1.523-.483,2.3-.037.223-.074.409-.111.631-.334,1.523-.631,3.083-.928,4.643l-.223,1.114c-.074.334-.149.706-.223,1.077-.334,1.82-.706,3.64-1.04,5.5-.074.446-.149.891-.223,1.374-.371,2.08-.743,4.16-1.114,6.277l-.111.557c-.631,3.6-1.226,7.206-1.783,10.845a622.759,622.759,0,0,1-82.864-37.7,477.785,477.785,0,0,1,27.039-69.307A404.892,404.892,0,0,0,310.111,515Z" transform="translate(-146.389 -358.678)" fill="none" stroke="#ffcd00" stroke-miterlimit="10" stroke-width="3"/>
                        <path id="Path_11" data-name="Path 11" d="M447.391,534.288a622.754,622.754,0,0,1-82.864,37.7c-.557-3.64-1.151-7.243-1.783-10.845-.446-2.749-.966-5.5-1.448-8.208-.074-.334-.111-.631-.186-.929-.52-2.823-1.04-5.608-1.634-8.357-.52-2.711-1.077-5.423-1.634-8.1-.371-1.708-.706-3.417-1.114-5.088-.371-1.783-.78-3.566-1.189-5.349-.371-1.746-.78-3.454-1.189-5.163-.409-1.672-.78-3.306-1.226-4.977a408.87,408.87,0,0,0,67.227-49.956A478.971,478.971,0,0,1,447.391,534.288Z" transform="translate(226.216 -358.651)" fill="none" stroke="#ffcd00" stroke-miterlimit="10" stroke-width="3"/>
                        <path id="Path_12" data-name="Path 12" d="M332.793,516.019c-.3,2.934-.631,5.868-.891,8.84-.26,2.451-.483,4.9-.706,7.354-.26,2.526-.483,5.051-.706,7.614a.632.632,0,0,1-.037.26c-.26,3.268-.52,6.537-.78,9.843-.3,3.826-.594,7.688-.854,11.551a622.424,622.424,0,0,1-90.664-26c.557-3.64,1.151-7.243,1.783-10.845l.111-.557c.371-2.117.743-4.2,1.114-6.277.074-.483.149-.929.223-1.374.334-1.857.706-3.677,1.04-5.5.074-.371.149-.743.223-1.077l.223-1.114c.3-1.56.594-3.12.929-4.643.037-.223.074-.409.111-.631.186-.78.334-1.523.483-2.3.037-.223.111-.446.149-.669.409-1.931.817-3.863,1.263-5.794.111-.557.223-1.077.334-1.634.149-.52.26-1.077.371-1.6.074-.3.111-.594.186-.891.223-1.077.483-2.117.743-3.157.669-3.009,1.374-5.98,2.117-8.951A402.52,402.52,0,0,0,332.793,516.019Z" transform="translate(-85.836 -322.145)" fill="none" stroke="#ffcd00" stroke-miterlimit="10" stroke-width="3"/>
                        <path id="Path_13" data-name="Path 13" d="M425.38,535.481a622.9,622.9,0,0,1-90.7,26c-.26-3.863-.557-7.726-.854-11.551q-1-12.7-2.229-25.071c-.26-2.971-.557-5.906-.892-8.84a403.707,403.707,0,0,0,83.272-37.551c.446,1.671.817,3.306,1.226,4.977.409,1.708.817,3.417,1.189,5.163.409,1.783.817,3.566,1.189,5.349.409,1.671.743,3.38,1.114,5.088.557,2.674,1.114,5.386,1.634,8.1.557,2.786,1.114,5.534,1.634,8.357.074.3.111.594.186.929.483,2.711.966,5.46,1.448,8.208C424.229,528.238,424.823,531.841,425.38,535.481Z" transform="translate(165.363 -322.145)" fill="none" stroke="#ffcd00" stroke-miterlimit="10" stroke-width="3"/>
                        <path id="Path_14" data-name="Path 14" d="M519.625,534.04a631.351,631.351,0,0,1-128.511,13.111A631.715,631.715,0,0,1,262.565,534.04c.26-3.863.557-7.726.854-11.551.26-3.306.52-6.574.78-9.843a.632.632,0,0,0,.037-.26c.223-2.563.446-5.088.706-7.614.223-2.451.446-4.9.706-7.354.26-2.971.594-5.906.891-8.84A406.149,406.149,0,0,0,391.113,508.04,404.794,404.794,0,0,0,515.65,488.578c.334,2.934.632,5.868.891,8.84q1.226,12.368,2.229,25.071C519.068,526.314,519.365,530.177,519.625,534.04Z" transform="translate(-19.582 -294.704)" fill="none" stroke="#ffcd00" stroke-miterlimit="10" stroke-width="3"/>
                        <path id="Path_15" data-name="Path 15" d="M453.115,493.5a410.014,410.014,0,0,1-45.5,49.176l-.074.074a418.887,418.887,0,0,0-49.7-79.335c.037,0,.037-.037.074-.037,6.24-4.2,12.368-8.506,18.385-13.037q8.97-6.741,17.605-13.965c.669.52,1.337,1.077,2.006,1.634,1.449,1.151,2.9,2.34,4.345,3.529.074.074.149.111.223.186.037.037.074.074.111.074,1.3,1.077,2.6,2.191,3.9,3.306,1.783,1.449,3.491,2.971,5.237,4.457,2.377,2.08,4.717,4.16,7.057,6.314.706.594,1.411,1.263,2.117,1.969,2.006,1.857,4.011,3.751,5.98,5.646,1.969,1.857,3.863,3.751,5.757,5.683l1.226,1.226c.446.409.891.854,1.263,1.263l.074.074c2.006,2.043,4.011,4.123,5.98,6.24.074.074.149.112.186.186.149.149.26.3.409.446,2.229,2.34,4.383,4.717,6.537,7.131C448.621,488.3,450.887,490.9,453.115,493.5Z" transform="translate(239.029 -436.38)" fill="none" stroke="#ffcd00" stroke-miterlimit="10" stroke-width="3"/>
                        <path id="Path_16" data-name="Path 16" d="M445.541,523A409.7,409.7,0,0,1,378.574,572.8c-.074.037-.186.111-.26.149-.371-1.634-.78-3.231-1.189-4.828s-.78-3.194-1.226-4.754a3.111,3.111,0,0,0-.149-.557c-.78-2.971-1.6-5.943-2.414-8.877-.074-.26-.111-.483-.186-.706a.527.527,0,0,0-.074-.223.47.47,0,0,0-.037-.223c-.149-.446-.26-.854-.371-1.3-.111-.409-.223-.78-.334-1.151-.223-.817-.483-1.672-.743-2.489l-1.449-4.9q-1.449-4.9-3.008-9.694c-1.337-4.271-2.749-8.506-4.2-12.666-.334-1.04-.706-2.08-1.077-3.12-.817-2.34-1.634-4.68-2.526-6.983-.446-1.263-.929-2.526-1.411-3.826-.929-2.526-1.894-5.051-2.9-7.54-1.969-4.977-3.974-9.88-6.091-14.708-.668-1.56-1.337-3.12-2.043-4.68a9.462,9.462,0,0,0-.483-1.077c-.854-1.894-1.709-3.788-2.563-5.646.074-.037.111-.074.186-.074a404.819,404.819,0,0,0,51.813-29.268A418.885,418.885,0,0,1,445.541,523Z" transform="translate(201.031 -416.621)" fill="none" stroke="#ffcd00" stroke-miterlimit="10" stroke-width="3"/>
                        <path id="Path_17" data-name="Path 17" d="M427.468,551.509A403.718,403.718,0,0,1,344.2,589.06c-.891-8.171-1.82-16.231-2.86-24.142-.334-2.674-.706-5.311-1.077-7.948q-2.34-17.438-5.2-33.985c-.966-5.757-2.006-11.44-3.083-17.048-1.04-5.571-2.154-11.068-3.306-16.491-.483-2.229-.966-4.457-1.449-6.648s-.966-4.383-1.486-6.574A398.607,398.607,0,0,0,393,451.56c.854,1.857,1.709,3.751,2.563,5.645a9.453,9.453,0,0,1,.483,1.077c.706,1.56,1.374,3.12,2.043,4.68,2.117,4.828,4.123,9.731,6.091,14.708,1,2.489,1.969,5.014,2.9,7.54.483,1.3.966,2.563,1.411,3.826.891,2.3,1.709,4.643,2.526,6.983.371,1.04.743,2.08,1.077,3.12,1.449,4.16,2.86,8.394,4.2,12.665q1.56,4.791,3.009,9.694l1.449,4.9c.483,1.634.966,3.268,1.411,4.94a715.6,715.6,0,0,1,.148.446c.074.223.111.446.186.706.817,2.934,1.634,5.906,2.414,8.877a3.11,3.11,0,0,1,.149.557c.446,1.56.817,3.157,1.226,4.754S427.1,549.875,427.468,551.509Z" transform="translate(151.876 -395.179)" fill="none" stroke="#ffcd00" stroke-miterlimit="10" stroke-width="3"/>
                        <path id="Path_18" data-name="Path 18" d="M512.747,571.037c-.037,0-.111.037-.149.037a408.091,408.091,0,0,1-248.814,0c-.037,0-.111-.037-.149-.037.594-5.423,1.189-10.808,1.857-16.12.371-3.417.817-6.8,1.263-10.177.557-4.308,1.151-8.58,1.746-12.814q1.5-10.585,3.194-20.837c.334-2.08.668-4.123,1.04-6.166.966-5.757,2.006-11.44,3.083-17.048.074-.52.186-1.077.3-1.6.446-2.229.854-4.42,1.337-6.648.52-2.786,1.114-5.534,1.671-8.246.966-4.457,1.931-8.84,2.971-13.185.037,0,.074.037.111.037A406.8,406.8,0,0,0,388.173,472.2h.037a406.793,406.793,0,0,0,105.966-13.965c.037,0,.074-.037.112-.037.52,2.191,1,4.383,1.486,6.574s.966,4.42,1.449,6.648c1.151,5.423,2.266,10.92,3.306,16.491,1.077,5.608,2.117,11.291,3.083,17.048q2.841,16.547,5.2,33.985c.371,2.637.743,5.274,1.077,7.948C510.927,554.806,511.856,562.866,512.747,571.037Z" transform="translate(-16.675 -377.156)" fill="none" stroke="#ffcd00" stroke-miterlimit="10" stroke-width="3"/>
                        <path id="Path_19" data-name="Path 19" d="M342.921,476.2c-1.04,4.346-2.006,8.728-2.971,13.185-.557,2.711-1.151,5.46-1.671,8.246-.483,2.229-.891,4.42-1.337,6.648-.111.52-.223,1.077-.3,1.6-1.077,5.608-2.117,11.291-3.083,17.048-.371,2.043-.706,4.086-1.04,6.166q-1.671,10.251-3.194,20.837c-.594,4.234-1.189,8.505-1.746,12.814-.446,3.38-.892,6.76-1.263,10.177-.669,5.311-1.263,10.7-1.857,16.12a402.531,402.531,0,0,1-83.235-37.55c1.114-4.531,2.266-9.063,3.491-13.52,2.191-8.208,4.568-16.268,7.057-24.142a10.239,10.239,0,0,1,.3-1c.074-.223.149-.483.223-.706a5.892,5.892,0,0,1,.26-.743c.669-2.08,1.337-4.123,2.006-6.166s1.337-4.086,2.043-6.091c.706-2.08,1.449-4.16,2.191-6.2.743-2.08,1.486-4.123,2.229-6.166.557-1.486,1.114-2.934,1.671-4.383.409-1.077.854-2.154,1.263-3.231q1.671-4.346,3.454-8.58c.037-.111.074-.186.111-.3.186-.409.334-.78.483-1.189.26-.594.52-1.226.78-1.82.557-1.3,1.077-2.6,1.671-3.9.371-.929.78-1.857,1.189-2.749l.446-1c.669-1.56,1.374-3.083,2.08-4.606.483-1.151,1-2.3,1.56-3.417A400.93,400.93,0,0,0,342.921,476.2Z" transform="translate(-77.5 -395.151)" fill="none" stroke="#ffcd00" stroke-miterlimit="10" stroke-width="3"/>
                        <path id="Path_20" data-name="Path 20" d="M324.858,473.039c-.557,1.114-1.077,2.266-1.56,3.417-.706,1.523-1.411,3.046-2.08,4.606l-.446,1c-.409.891-.817,1.82-1.188,2.749-.594,1.3-1.114,2.6-1.671,3.9-.26.594-.52,1.226-.78,1.82-.149.409-.3.78-.483,1.189-.037.111-.074.186-.111.3q-1.783,4.234-3.454,8.58c-.409,1.077-.854,2.154-1.263,3.231-.557,1.449-1.114,2.9-1.671,4.383-.743,2.043-1.486,4.086-2.229,6.166-.743,2.043-1.486,4.123-2.191,6.2-.706,2.006-1.374,4.049-2.043,6.091s-1.337,4.085-2.006,6.166a5.894,5.894,0,0,0-.26.743c-.074.223-.148.483-.223.706a10.228,10.228,0,0,0-.3,1c-1.189,3.64-2.34,7.354-3.417,11.068-1.263,4.309-2.488,8.691-3.64,13.074-1.226,4.457-2.414,8.951-3.491,13.52-.111-.074-.186-.111-.3-.186a405.163,405.163,0,0,1-66.93-49.807,420.326,420.326,0,0,1,49.659-79.3q9.248,6.184,18.868,11.811c1.6.966,3.231,1.894,4.828,2.786,2.674,1.56,5.386,3.083,8.134,4.531,1.857,1.04,3.751,2.006,5.646,3.008,4.717,2.489,9.508,4.828,14.337,7.131C324.672,472.965,324.784,473,324.858,473.039Z" transform="translate(-126.627 -416.621)" fill="none" stroke="#ffcd00" stroke-miterlimit="10" stroke-width="3"/>
                        <path id="Path_21" data-name="Path 21" d="M306.088,463.419a420.322,420.322,0,0,0-49.659,79.3l-.074-.074a401.947,401.947,0,0,1-45.5-49.176c1.783-2.117,3.6-4.2,5.46-6.277l1.337-1.56c1.337-1.411,2.6-2.86,3.937-4.271l.149-.148q1.894-2.117,3.9-4.234c1.969-2.08,3.937-4.123,5.943-6.128l.483-.483c2.3-2.34,4.606-4.606,6.983-6.871,1.857-1.82,3.714-3.566,5.608-5.311.111-.111.26-.223.371-.334l.111-.111c.446-.446.929-.891,1.374-1.3.223-.223.409-.371.632-.557,2.34-2.154,4.68-4.271,7.057-6.314,1.746-1.486,3.454-3.008,5.237-4.457,1.3-1.114,2.6-2.229,3.9-3.306.037,0,.074-.037.111-.074.074-.074.149-.111.223-.186q2.117-1.783,4.234-3.454c.037,0,.074-.037.111-.074.669-.557,1.337-1.114,2.006-1.634q8.636,7.243,17.605,13.965c6.017,4.531,12.145,8.84,18.385,13.037C306.051,463.382,306.051,463.419,306.088,463.419Z" transform="translate(-159.931 -436.38)" fill="none" stroke="#ffcd00" stroke-miterlimit="10" stroke-width="3"/>
                    </g>
                </g>
                <path id="Path_22" data-name="Path 22" d="M484.7,411.89c-1.04.037-2.117.074-3.157.148h-.3a259.115,259.115,0,0,0-104.555,25.294c-42.936,20.354-81.675,52.11-113.914,92.521-6.24-4.2-12.368-8.506-18.385-13.037q-8.97-6.741-17.605-13.965c2.489-1.969,5.014-3.937,7.54-5.831q4.457-3.454,9.026-6.686c2.563-1.82,5.126-3.6,7.726-5.386,2.786-1.894,5.571-3.751,8.394-5.571,2.823-1.857,5.683-3.64,8.543-5.386,2.86-1.783,5.757-3.491,8.654-5.2s5.831-3.343,8.8-4.977c2.934-1.634,5.868-3.194,8.84-4.754.037-.037.074-.037.111-.074,2.6-1.337,5.2-2.637,7.837-3.937.52-.3,1.077-.557,1.634-.817,2.228-1.077,4.494-2.154,6.76-3.194a29.326,29.326,0,0,1,2.674-1.226q4.011-1.839,8.023-3.565c.037,0,.037-.037.074-.037.186-.074.334-.149.483-.223.037,0,.074-.037.111-.037.371-.149.78-.334,1.151-.483.149-.074.3-.111.446-.185,2.563-1.077,5.126-2.154,7.726-3.194,3.046-1.226,6.091-2.414,9.174-3.6a3.27,3.27,0,0,1,.557-.186c2.674-1,5.348-1.969,8.06-2.9a15.737,15.737,0,0,1,1.857-.669c3.083-1.04,6.165-2.08,9.248-3.046,3.268-1.04,6.537-2.043,9.843-3.008A418.329,418.329,0,0,1,484.7,411.89Z" transform="translate(-116.693 -411.853)" fill="none" stroke="#ffcd00" stroke-miterlimit="10" stroke-width="3"/>
                <path id="Path_23" data-name="Path 23" d="M556.057,502.851c-5.72,4.828-11.625,9.471-17.605,13.965-6.017,4.531-12.146,8.84-18.385,13.037-4.049-5.051-8.171-9.954-12.443-14.708-2.117-2.377-4.271-4.717-6.426-7.057-2.117-2.3-4.271-4.606-6.574-6.834-.52-.557-1.077-1.114-1.634-1.672-1.671-1.671-3.343-3.343-5.051-4.94-1.114-1.077-2.229-2.191-3.38-3.231,0-.037,0-.037-.037-.037-1.151-1.04-2.266-2.08-3.417-3.12-2.191-2.043-4.42-4.011-6.648-5.943-.594-.557-1.226-1.077-1.857-1.56-1.82-1.6-3.677-3.12-5.534-4.643-2.377-1.931-4.791-3.826-7.206-5.72q-3.677-2.786-7.354-5.46c-2.451-1.783-4.94-3.491-7.428-5.237,0,0-.037.037-.037,0-2.488-1.671-5.014-3.343-7.54-4.977-2.563-1.6-5.125-3.194-7.688-4.717-5.163-3.083-10.4-6.017-15.711-8.691-2.637-1.374-5.274-2.711-7.948-3.974A259.436,259.436,0,0,0,301.56,412.038h-.3c-1.04-.074-2.117-.111-3.157-.148a418.33,418.33,0,0,1,114.62,16.788c.817.223,1.6.446,2.414.706.929.26,1.82.52,2.748.817.892.26,1.82.52,2.711.854,2.34.706,4.68,1.449,7.02,2.266.074.037.186.037.26.074.78.223,1.523.483,2.266.743.111.037.26.111.371.149,1.3.409,2.637.854,3.937,1.374.409.111.817.26,1.226.409,2.043.706,4.048,1.449,6.091,2.229a5.426,5.426,0,0,1,.706.26q4.457,1.671,8.914,3.454a4.545,4.545,0,0,1,.631.26q3.9,1.56,7.8,3.231c.557.223,1.077.446,1.634.706,1.449.594,2.86,1.226,4.308,1.894.78.334,1.56.669,2.3,1.04.111.037.186.112.3.149.074.037.186.074.26.111,1.523.669,3.046,1.337,4.531,2.117,1.931.854,3.863,1.783,5.794,2.711.557.26,1.114.52,1.634.817,2.637,1.3,5.237,2.6,7.837,3.937a.812.812,0,0,1,.186.111c2.823,1.486,5.608,2.971,8.394,4.494.52.26,1,.557,1.523.854,2.563,1.411,5.126,2.86,7.651,4.346,2.9,1.671,5.794,3.417,8.654,5.163,2.86,1.783,5.72,3.565,8.543,5.385,4.531,2.971,8.988,5.98,13.408,9.1.631.446,1.226.891,1.857,1.337.26.149.52.334.78.52.037.037.074.037.112.074,3.008,2.154,6.017,4.346,8.988,6.648C551.043,498.914,553.569,500.882,556.057,502.851Z" transform="translate(76.883 -411.853)" fill="none" stroke="#ffcd00" stroke-miterlimit="10" stroke-width="3"/>
                <path id="Path_24" data-name="Path 24" d="M480.605,583.959a406.794,406.794,0,0,1-105.966,13.965H374.6a406.8,406.8,0,0,1-105.966-13.965c8.691-38.033,19.351-71.2,31.534-97.981,21.134-46.762,46.8-74.1,74.432-74.1s53.3,27.337,74.47,74.061C461.217,512.721,471.877,545.888,480.605,583.959Z" transform="translate(-3.104 -411.88)" fill="none" stroke="#ffcd00" stroke-miterlimit="10" stroke-width="3"/>
                <path id="Path_25" data-name="Path 25" d="M470.545,559.26a398.608,398.608,0,0,1-67.264,24.662q-2.563-11.365-5.423-22.174c-7.614-28.9-16.38-54.487-26.148-75.918l-.074.111c-21.171-46.725-46.836-74.061-74.47-74.061,1.152,0,2.34,0,3.491.037,1.04.037,2.117.074,3.157.148h.3c.854.037,1.746.112,2.6.186.446.037.854.074,1.3.111,1.56.112,3.083.3,4.606.483,1.189.149,2.377.3,3.529.483a2.1,2.1,0,0,1,.669.111q1.672.223,3.343.557,2.674.5,5.348,1.114c1.374.3,2.786.631,4.16,1,.037,0,.111.037.149.037.186.037.409.111.594.149a8.078,8.078,0,0,1,.891.26c1.226.334,2.451.669,3.64,1.077,1.411.409,2.786.854,4.16,1.337,1.449.483,2.86,1,4.308,1.56,1.411.52,2.86,1.077,4.271,1.672s2.823,1.226,4.234,1.857,2.823,1.3,4.2,2.006c1.077.52,2.154,1.04,3.231,1.634l.223.111c1.226.631,2.488,1.3,3.714,1.969.408.223.817.446,1.226.706,1.411.817,2.86,1.634,4.271,2.526a9.339,9.339,0,0,1,.817.483c1.709,1.04,3.417,2.117,5.089,3.268,1.857,1.226,3.714,2.489,5.534,3.826.149.112.334.223.483.334,1.56,1.151,3.12,2.3,4.68,3.491,3.714,2.86,7.391,5.906,10.994,9.137l-.074.074c2.674,2.377,5.274,4.829,7.874,7.428.966.891,1.894,1.82,2.786,2.749,3.454,3.491,6.834,7.094,10.1,10.883,1.709,1.894,3.343,3.863,5.014,5.868,3.306,3.974,6.537,8.1,9.694,12.405,1.6,2.154,3.157,4.309,4.717,6.537.78,1.114,1.56,2.229,2.3,3.343a3.7,3.7,0,0,1,.446.706c.149.186.3.409.446.631.483.669.966,1.374,1.411,2.08,2.154,3.194,4.271,6.537,6.388,9.917,1.04,1.709,2.08,3.417,3.12,5.163,1.263,2.117,2.526,4.271,3.751,6.425,1.411,2.488,2.823,5.014,4.2,7.577.891,1.634,1.783,3.268,2.637,4.94.706,1.337,1.374,2.674,2.08,4.011,1.151,2.266,2.266,4.531,3.38,6.8C467.982,553.8,469.282,556.511,470.545,559.26Z" transform="translate(74.332 -411.88)" fill="none" stroke="#ffcd00" stroke-miterlimit="10" stroke-width="3"/>
                <path id="Path_26" data-name="Path 26" d="M423.783,411.88c-27.634,0-53.3,27.337-74.432,74.1l-.074-.074c-9.731,21.431-18.534,46.984-26.148,75.844-.743,2.823-1.486,5.683-2.191,8.58-.669,2.6-1.3,5.274-1.932,7.948-.446,1.857-.891,3.751-1.3,5.646a400.932,400.932,0,0,1-67.19-24.625c1.3-2.786,2.6-5.534,3.937-8.283.149-.334.334-.669.52-1.04,1.931-3.937,3.9-7.763,5.906-11.551.78-1.486,1.56-2.971,2.377-4.42.817-1.486,1.634-3.009,2.489-4.457.669-1.226,1.337-2.414,2.043-3.566.78-1.449,1.634-2.9,2.526-4.308q1.894-3.287,3.9-6.463c1.077-1.746,2.154-3.454,3.268-5.125,2.154-3.38,4.383-6.686,6.648-9.917.594-.854,1.188-1.708,1.82-2.563,2.377-3.38,4.791-6.648,7.28-9.805.929-1.226,1.857-2.414,2.823-3.566,1.114-1.411,2.266-2.823,3.417-4.234,1.151-1.374,2.3-2.748,3.491-4.086.928-1.114,1.857-2.154,2.823-3.231,2.748-3.083,5.534-6.091,8.394-8.951,1.448-1.486,2.9-2.9,4.346-4.309,2.043-1.969,4.123-3.9,6.2-5.757l-.111-.149c28.042-24.922,59.241-39.63,92.224-41.451h.3c1.04-.074,2.117-.111,3.157-.148C421.443,411.88,422.632,411.88,423.783,411.88Z" transform="translate(-52.286 -411.88)" fill="none" stroke="#ffcd00" stroke-miterlimit="10" stroke-width="3"/>
                <path id="Path_27" data-name="Path 27" d="M454.891,411.93c-32.982,1.82-64.181,16.528-92.224,41.451-28.636,25.479-53.93,61.656-74.358,105.669-4.828-2.3-9.62-4.643-14.337-7.131-1.894-.966-3.789-1.969-5.646-3.008-2.749-1.449-5.46-2.971-8.134-4.531-1.634-.891-3.231-1.82-4.828-2.786q-9.638-5.627-18.868-11.811c32.276-40.373,70.941-72.167,113.877-92.521l-.037-.037A259.113,259.113,0,0,1,454.891,411.93Z" transform="translate(-90.339 -411.744)" fill="none" stroke="#ffcd00" stroke-miterlimit="10" stroke-width="3"/>
                <path id="Path_28" data-name="Path 28" d="M517.468,529.782a404.809,404.809,0,0,1-51.813,29.268C445.19,515.036,419.9,478.86,391.3,453.418c-3.6-3.231-7.28-6.277-10.994-9.137-1.56-1.188-3.12-2.377-4.68-3.491-.149-.112-.334-.223-.483-.334-1.82-1.337-3.677-2.6-5.534-3.826-1.671-1.151-3.38-2.228-5.089-3.268a9.37,9.37,0,0,0-.817-.483c-1.411-.891-2.86-1.709-4.271-2.526-.408-.26-.817-.483-1.226-.706-1.226-.669-2.489-1.337-3.714-1.969l-.223-.111c-1.077-.594-2.154-1.114-3.231-1.634-1.374-.706-2.786-1.375-4.2-2.006-1.411-.669-2.823-1.263-4.234-1.857s-2.86-1.151-4.271-1.672c-1.448-.557-2.86-1.077-4.308-1.56-1.374-.483-2.748-.929-4.16-1.337-1.189-.408-2.414-.743-3.64-1.077a8.051,8.051,0,0,0-.891-.26c-.186-.037-.408-.111-.594-.149-.037,0-.111-.037-.149-.037-1.374-.371-2.786-.706-4.16-1-1.783-.446-3.566-.78-5.348-1.114q-1.671-.334-3.343-.557a2.106,2.106,0,0,0-.669-.111c-1.151-.186-2.34-.334-3.529-.483-1.523-.186-3.046-.371-4.606-.483-.446-.037-.854-.074-1.3-.111-.854-.074-1.746-.149-2.6-.186a259.434,259.434,0,0,1,104.592,25.294l-.037.037c2.674,1.263,5.348,2.6,7.986,3.937q7.967,4.123,15.711,8.691c2.563,1.523,5.126,3.12,7.688,4.717,2.526,1.634,5.051,3.306,7.54,4.977,0,.037.037,0,.037,0,2.489,1.746,4.977,3.454,7.428,5.237s4.9,3.6,7.354,5.46c2.414,1.894,4.828,3.788,7.206,5.72,1.857,1.523,3.714,3.046,5.534,4.643.631.483,1.263,1,1.857,1.56,2.229,1.931,4.457,3.9,6.648,5.943,1.151,1.04,2.266,2.08,3.417,3.12.037,0,.037,0,.037.037,1.151,1.04,2.266,2.154,3.38,3.231,1.709,1.6,3.38,3.268,5.051,4.94.557.557,1.114,1.114,1.634,1.672,2.229,2.266,4.42,4.531,6.574,6.834,2.154,2.34,4.308,4.68,6.425,7.057Q511.4,522.223,517.468,529.782Z" transform="translate(79.407 -411.744)" fill="none" stroke="#ffcd00" stroke-miterlimit="10" stroke-width="3"/>
            </g>
            <g id="Group_34" data-name="Group 34" transform="translate(289.874 79.219)">
                <path id="Path_29" data-name="Path 29" d="M261.825,1024.359l43.828-277.3L317.761,670.4l9.694-61.247,10.883-68.861,24.4-154.325L393.085,193.9l30.382,192.024,24.4,154.4,10.883,68.824,9.657,61.173,12.146,76.773,43.827,277.265" transform="translate(-261.825 -193.901)" fill="none" stroke="#ffcd00" stroke-miterlimit="10" stroke-width="3"/>
                <path id="Path_30" data-name="Path 30" d="M297.175,463.841" transform="translate(-165.877 538.769)" fill="none" stroke="#ffcd00" stroke-miterlimit="10" stroke-width="1"/>
                <g id="Group_15" data-name="Group 15" transform="translate(6.991 629.36)">
                    <path id="Path_31" data-name="Path 31" d="M512.281,517.054,450.138,623.369,387.994,729.647,325.851,623.369,263.707,517.054,325.851,440.2l62.144-76.853L450.138,440.2Z" transform="translate(-263.707 -363.348)" fill="none" stroke="#ffcd00" stroke-linejoin="round" stroke-width="2"/>
                    <path id="Path_32" data-name="Path 32" d="M263.707,404.732l124.287,29.444,124.287-29.444" transform="translate(-263.707 -251.026)" fill="none" stroke="#ffcd00" stroke-linejoin="round" stroke-width="2"/>
                    <line id="Line_2" data-name="Line 2" x2="0.019" y2="366.262" transform="translate(124.287)" fill="none" stroke="#ffcd00" stroke-linejoin="round" stroke-width="2"/>
                </g>
                <g id="Group_17" data-name="Group 17" transform="translate(30.358 511.447)">
                    <g id="Group_16" data-name="Group 16">
                        <path id="Path_33" data-name="Path 33" d="M471.839,458.791l-50.46,87.974-50.46,87.944-50.46-87.944L270,458.791l50.46-63.595,50.46-63.595,50.46,63.595Z" transform="translate(-269.998 -331.602)" fill="none" stroke="#ffcd00" stroke-linejoin="round" stroke-width="2"/>
                        <path id="Path_34" data-name="Path 34" d="M270,365.846l100.92,24.364,100.92-24.364" transform="translate(-269.998 -238.657)" fill="none" stroke="#ffcd00" stroke-linejoin="round" stroke-width="2"/>
                    </g>
                    <line id="Line_3" data-name="Line 3" y2="304.557" transform="translate(100.92)" fill="none" stroke="#ffcd00" stroke-linejoin="round" stroke-width="2"/>
                </g>
                <g id="Group_19" data-name="Group 19" transform="translate(51.654 403.531)">
                    <g id="Group_18" data-name="Group 18">
                        <path id="Path_35" data-name="Path 35" d="M434.98,402.9l-39.812,69.409-39.812,69.386-39.812-69.386L275.732,402.9l39.812-50.175,39.812-50.175,39.812,50.175Z" transform="translate(-275.732 -302.547)" fill="none" stroke="#ffcd00" stroke-linejoin="round" stroke-width="1.563"/>
                        <path id="Path_36" data-name="Path 36" d="M275.732,329.565l79.624,19.223,79.624-19.223" transform="translate(-275.732 -229.215)" fill="none" stroke="#ffcd00" stroke-linejoin="round" stroke-width="1.563"/>
                    </g>
                    <line id="Line_4" data-name="Line 4" y2="240.288" transform="translate(79.624)" fill="none" stroke="#ffcd00" stroke-linejoin="round" stroke-width="1.563"/>
                </g>
                <g id="Group_21" data-name="Group 21" transform="translate(67.627 322.593)">
                    <g id="Group_20" data-name="Group 20">
                        <path id="Path_37" data-name="Path 37" d="M407.336,360.975,375.51,416.461l-31.826,55.467-31.826-55.467-31.826-55.486,31.826-40.11,31.826-40.11,31.826,40.11Z" transform="translate(-280.032 -280.755)" fill="none" stroke="#ffcd00" stroke-linejoin="round" stroke-width="1.234"/>
                        <path id="Path_38" data-name="Path 38" d="M280.032,302.353l63.652,15.367,63.652-15.367" transform="translate(-280.032 -222.134)" fill="none" stroke="#ffcd00" stroke-linejoin="round" stroke-width="1.234"/>
                    </g>
                    <line id="Line_5" data-name="Line 5" y2="192.087" transform="translate(63.652)" fill="none" stroke="#ffcd00" stroke-linejoin="round" stroke-width="1.234"/>
                </g>
                <g id="Group_23" data-name="Group 23" transform="translate(79.606 261.89)">
                    <g id="Group_22" data-name="Group 22">
                        <path id="Path_39" data-name="Path 39" d="M386.6,329.534l-25.836,45.044L334.93,419.606l-25.836-45.028-25.836-45.044,25.836-32.561,25.836-32.561,25.836,32.561Z" transform="translate(-283.258 -264.412)" fill="none" stroke="#ffcd00" stroke-linejoin="round" stroke-width="0.988"/>
                        <path id="Path_40" data-name="Path 40" d="M283.258,281.945,334.93,294.42,386.6,281.945" transform="translate(-283.258 -216.823)" fill="none" stroke="#ffcd00" stroke-linejoin="round" stroke-width="0.988"/>
                    </g>
                    <line id="Line_6" data-name="Line 6" y2="155.937" transform="translate(51.672)" fill="none" stroke="#ffcd00" stroke-linejoin="round" stroke-width="0.988"/>
                </g>
                <g id="Group_25" data-name="Group 25" transform="translate(88.59 216.362)">
                    <g id="Group_24" data-name="Group 24">
                        <path id="Path_41" data-name="Path 41" d="M371.052,305.953l-21.344,37.212-21.344,37.2-21.344-37.2-21.344-37.212,21.344-26.9,21.344-26.9,21.344,26.9Z" transform="translate(-285.677 -252.154)" fill="none" stroke="#ffcd00" stroke-linejoin="round" stroke-width="0.804"/>
                        <path id="Path_42" data-name="Path 42" d="M285.677,266.639l42.688,10.306,42.688-10.306" transform="translate(-285.677 -212.839)" fill="none" stroke="#ffcd00" stroke-linejoin="round" stroke-width="0.804"/>
                    </g>
                    <line id="Line_7" data-name="Line 7" y2="128.824" transform="translate(42.688)" fill="none" stroke="#ffcd00" stroke-linejoin="round" stroke-width="0.804"/>
                </g>
                <g id="Group_27" data-name="Group 27" transform="translate(95.329 182.217)">
                    <g id="Group_26" data-name="Group 26">
                        <path id="Path_43" data-name="Path 43" d="M359.39,288.268l-17.975,31.338L323.44,350.933l-17.975-31.327-17.975-31.338,17.975-22.654,17.975-22.654,17.975,22.654Z" transform="translate(-287.491 -242.961)" fill="none" stroke="#ffcd00" stroke-linejoin="round" stroke-width="0.665"/>
                        <path id="Path_44" data-name="Path 44" d="M287.491,255.159l35.95,8.679,35.95-8.679" transform="translate(-287.491 -209.852)" fill="none" stroke="#ffcd00" stroke-linejoin="round" stroke-width="0.665"/>
                    </g>
                    <line id="Line_8" data-name="Line 8" y2="108.489" transform="translate(35.95)" fill="none" stroke="#ffcd00" stroke-linejoin="round" stroke-width="0.665"/>
                </g>
                <g id="Group_29" data-name="Group 29" transform="translate(102.067 148.071)">
                    <g id="Group_28" data-name="Group 28">
                        <path id="Path_45" data-name="Path 45" d="M347.728,270.582l-14.606,25.464L318.516,321.5l-14.606-25.455L289.3,270.582l14.606-18.407,14.606-18.407,14.606,18.407Z" transform="translate(-289.305 -233.768)" fill="none" stroke="#ffcd00" stroke-linejoin="round" stroke-width="0.527"/>
                        <path id="Path_46" data-name="Path 46" d="M289.3,243.679l29.211,7.052,29.211-7.052" transform="translate(-289.305 -206.865)" fill="none" stroke="#ffcd00" stroke-linejoin="round" stroke-width="0.527"/>
                    </g>
                    <line id="Line_9" data-name="Line 9" y2="88.154" transform="translate(29.211)" fill="none" stroke="#ffcd00" stroke-linejoin="round" stroke-width="0.527"/>
                </g>
                <g id="Group_31" data-name="Group 31" transform="translate(108.805 113.926)">
                    <g id="Group_30" data-name="Group 30">
                        <path id="Path_47" data-name="Path 47" d="M336.065,252.9l-11.237,19.59-11.236,19.583-11.237-19.583L291.119,252.9l11.237-14.161,11.237-14.161,11.236,14.161Z" transform="translate(-291.119 -224.574)" fill="none" stroke="#ffcd00" stroke-linejoin="round" stroke-width="0.5"/>
                        <path id="Path_48" data-name="Path 48" d="M291.119,232.2l22.473,5.425,22.473-5.425" transform="translate(-291.119 -203.877)" fill="none" stroke="#ffcd00" stroke-linejoin="round" stroke-width="0.5"/>
                    </g>
                    <line id="Line_10" data-name="Line 10" y2="67.819" transform="translate(22.473)" fill="none" stroke="#ffcd00" stroke-linejoin="round" stroke-width="0.5"/>
                </g>
                <g id="Group_33" data-name="Group 33" transform="translate(115.544 79.78)">
                    <g id="Group_32" data-name="Group 32">
                        <path id="Path_49" data-name="Path 49" d="M324.4,235.211l-7.867,13.716-7.867,13.712L300.8,248.928l-7.867-13.716L300.8,225.3l7.867-9.915,7.867,9.915Z" transform="translate(-292.933 -215.381)" fill="none" stroke="#ffcd00" stroke-linejoin="round" stroke-width="0.5"/>
                        <path id="Path_50" data-name="Path 50" d="M292.933,220.72l15.735,3.8,15.735-3.8" transform="translate(-292.933 -200.89)" fill="none" stroke="#ffcd00" stroke-linejoin="round" stroke-width="0.5"/>
                    </g>
                    <line id="Line_11" data-name="Line 11" y2="47.484" transform="translate(15.735)" fill="none" stroke="#ffcd00" stroke-linejoin="round" stroke-width="0.5"/>
                </g>
            </g>
            <g id="Group_36" data-name="Group 36" transform="translate(254.965 26)">
                <line id="Line_12" data-name="Line 12" x1="300.494" y2="57.071" transform="translate(2.652 22.636)" fill="none" stroke="#ffcd00" stroke-linecap="round" stroke-miterlimit="10" stroke-width="6"/>
                <g id="Group_35" data-name="Group 35" transform="translate(53.272)">
                    <line id="Line_13" data-name="Line 13" x2="8.674" y2="45.807" transform="translate(190.304 9.976)" fill="none" stroke="#ffcd00" stroke-linecap="round" stroke-miterlimit="10" stroke-width="6"/>
                    <line id="Line_14" data-name="Line 14" x2="8.202" y2="45.823" transform="translate(219.017 5.157)" fill="none" stroke="#ffcd00" stroke-linecap="round" stroke-miterlimit="10" stroke-width="6"/>
                    <line id="Line_15" data-name="Line 15" x2="7.73" y2="45.839" transform="translate(246.366)" fill="none" stroke="#ffcd00" stroke-linecap="round" stroke-miterlimit="10" stroke-width="6"/>
                    <line id="Line_16" data-name="Line 16" x2="8.674" y2="45.807" transform="translate(0 47.518)" fill="none" stroke="#ffcd00" stroke-linecap="round" stroke-miterlimit="10" stroke-width="6"/>
                    <line id="Line_17" data-name="Line 17" x2="8.202" y2="45.823" transform="translate(28.713 42.7)" fill="none" stroke="#ffcd00" stroke-linecap="round" stroke-miterlimit="10" stroke-width="6"/>
                </g>
                <path id="Path_51" data-name="Path 51" d="M272,266.282a93.672,93.672,0,0,1-15.563-84.424" transform="translate(-252.426 -147.37)" fill="none" stroke="#ffcd00" stroke-linecap="round" stroke-miterlimit="10" stroke-width="6"/>
            </g>
        </g>
    </g>
</svg>
