<svg id="Iconly_Bulk_Paper_Upload" data-name="Iconly/Bulk/Paper Upload" xmlns="http://www.w3.org/2000/svg" width="72.771" height="85.613" viewBox="0 0 72.771 85.613">
    <g id="Paper_Upload" data-name="Paper Upload">
        <path id="Fill_3" data-name="Fill 3" d="M65.532,30.055c-1.933,0-4.493-.043-7.68-.043a14.281,14.281,0,0,1-14.165-14.28V1.965A1.954,1.954,0,0,0,41.75,0H19.107A19.216,19.216,0,0,0,0,19.3V65.426A20.087,20.087,0,0,0,19.989,85.613H53.7A19.159,19.159,0,0,0,72.771,66.359V31.981A1.943,1.943,0,0,0,70.83,30.02c-1.806.013-3.98.034-5.3.034" fill="#f2c84b" opacity="0.4"/>
        <path id="Fill_1" data-name="Fill 1" d="M3.514.631A2.043,2.043,0,0,0,0,2.061V13.349a8.674,8.674,0,0,0,8.63,8.63c2.988.034,7.132.043,10.65.034a2.041,2.041,0,0,0,1.468-3.459C16.232,13.858,8.146,5.443,3.514.631" transform="translate(50.354 1.797)" fill="#f2c84b" opacity="0.4"/>
        <path id="Fill_6" data-name="Fill 6" d="M29.943,17.752a3.191,3.191,0,0,1-4.512-.009l-6.8-6.836V31.57a3.187,3.187,0,1,1-6.374,0V10.907L5.444,17.743a3.187,3.187,0,0,1-4.516-4.5L13.18.937l0,0A3.191,3.191,0,0,1,16.673.248a3.222,3.222,0,0,1,1.019.681s.009,0,.009.009L29.951,13.244a3.186,3.186,0,0,1-.009,4.508" transform="translate(19.735 28.838)" fill="#d97218"/>
    </g>
</svg>
