<svg id="Iconly_Bold_Paper_Download" data-name="Iconly/Bold/Paper Download" xmlns="http://www.w3.org/2000/svg" width="73.671" height="85.613" viewBox="0 0 73.671 85.613">
    <g id="Paper_Download" data-name="Paper Download">
        <path id="Fill_3" data-name="Fill 3" d="M66.343,30.055c-1.957,0-4.548-.043-7.775-.043a14.368,14.368,0,0,1-14.34-14.28V1.965A1.966,1.966,0,0,0,42.263,0H19.347A19.337,19.337,0,0,0,0,19.3V65.426A20.213,20.213,0,0,0,20.239,85.613H54.367a19.276,19.276,0,0,0,19.3-19.254V31.981a1.954,1.954,0,0,0-1.965-1.961c-1.832.013-4.029.034-5.363.034" fill="#f2c84b" opacity="0.4"/>
        <path id="Fill_1" data-name="Fill 1" d="M3.558.631A2.072,2.072,0,0,0,0,2.061V13.349a8.725,8.725,0,0,0,8.737,8.63c3.025.034,7.22.043,10.782.034A2.038,2.038,0,0,0,21,18.554C16.433,13.858,8.247,5.443,3.558.631" transform="translate(50.978 1.797)" fill="#f2c84b" opacity="0.4"/>
        <path id="Fill_6" data-name="Fill 6" d="M30.315,17.007a3.259,3.259,0,0,0-4.568.009l-6.886,6.836V3.189a3.229,3.229,0,0,0-6.457,0V23.852l-6.89-6.836a3.253,3.253,0,0,0-4.563-.009,3.162,3.162,0,0,0-.013,4.508L13.345,33.826h0a3.231,3.231,0,0,0,1.04.689,3.317,3.317,0,0,0,1.244.244,3.261,3.261,0,0,0,2.279-.929l.009,0,12.4-12.311a3.158,3.158,0,0,0-.009-4.508" transform="translate(19.978 28.834)" fill="#d97218"/>
    </g>
</svg>
